<svg width="1158.6" height="200.001" viewBox="0 0 1158.6 200.001" xmlns="http://www.w3.org/2000/svg">
  <g id="svgGroup" stroke-linecap="round" fill-rule="evenodd" font-size="9pt" stroke="#000000" stroke-width="0.25mm" fill="#000" style="stroke:#000000;stroke-width:0.25mm;fill:#000">
    <path d="M 28.954 134.877 A 13.749 13.749 0 0 0 31.8 135.201 A 7.067 7.067 0 0 0 32.109 135.194 A 5.691 5.691 0 0 0 35.3 134.101 A 18.231 18.231 0 0 0 36.017 133.549 Q 36.507 133.15 36.902 132.765 A 8.478 8.478 0 0 0 37.6 132.001 A 476.621 476.621 0 0 1 35.74 131.253 Q 28.02 128.127 23.1 125.801 A 93.162 93.162 0 0 1 22.287 125.412 Q 19.831 124.222 17.708 123.01 A 54.461 54.461 0 0 1 13.7 120.501 Q 9.8 117.801 5.2 114.601 Q 10.2 112.001 16.1 108.601 Q 22 105.201 27.2 101.301 A 64.661 64.661 0 0 0 27.362 101.179 Q 32.452 97.337 35.7 93.301 A 20.865 20.865 0 0 0 36.289 92.534 Q 37.388 91.032 38.041 89.543 A 10.736 10.736 0 0 0 39 85.201 A 8.341 8.341 0 0 0 38.972 84.538 Q 38.939 84.136 38.871 83.673 A 19.712 19.712 0 0 0 38.7 82.701 Q 38.475 81.576 38.194 81.07 A 1.21 1.21 0 0 0 38 80.801 Q 33.8 86.601 27.4 92.801 Q 21 99.001 13.8 104.201 Q 6.6 109.401 0 112.401 Q 0.562 114.51 2.509 117.065 A 31.218 31.218 0 0 0 4.4 119.301 A 50.168 50.168 0 0 0 7.818 122.656 A 62.773 62.773 0 0 0 13 126.801 A 71.185 71.185 0 0 0 15.192 128.319 A 61.977 61.977 0 0 0 23.1 132.801 A 34.221 34.221 0 0 0 25.994 134.014 Q 27.559 134.581 28.954 134.877 Z" id="0"/>
    <path d="M 79.479 159.956 A 40.657 40.657 0 0 0 90.4 161.401 A 71.3 71.3 0 0 0 95.674 161.206 A 76.672 76.672 0 0 0 118.3 155.901 Q 132.2 150.401 144.4 140.501 Q 156.6 130.601 166.1 117.301 Q 175.6 104.001 181 88.101 Q 186.4 72.201 186.4 54.801 A 86.135 86.135 0 0 0 185.809 44.568 A 68.528 68.528 0 0 0 181.4 27.001 Q 176.4 14.601 165.5 7.301 A 36.734 36.734 0 0 0 159.64 4.122 Q 154.478 1.886 148.136 0.864 A 72.548 72.548 0 0 0 136.6 0.001 A 87.235 87.235 0 0 0 134.212 0.033 A 77.128 77.128 0 0 0 112.4 3.701 A 88.441 88.441 0 0 0 105.374 6.307 A 72.523 72.523 0 0 0 92.3 13.401 A 62.294 62.294 0 0 0 85.196 19.064 A 45.566 45.566 0 0 0 78.7 26.501 A 30.983 30.983 0 0 0 75.573 32.143 A 21.814 21.814 0 0 0 73.8 40.601 Q 73.8 45.201 76.5 48.501 A 7.844 7.844 0 0 0 79.521 50.719 Q 80.861 51.299 82.569 51.568 A 20.819 20.819 0 0 0 85.8 51.801 A 21.092 21.092 0 0 1 85.747 51.613 Q 85.38 50.281 85.1 48.601 A 17.969 17.969 0 0 1 85.021 48.081 Q 84.912 47.283 84.857 46.378 A 32.485 32.485 0 0 1 84.8 44.401 Q 84.8 33.401 90.8 24.601 A 39.73 39.73 0 0 1 96.159 18.275 A 44.761 44.761 0 0 1 107.2 10.601 A 47.484 47.484 0 0 1 116.798 7.046 A 55.994 55.994 0 0 1 130.6 5.401 A 53.057 53.057 0 0 1 138.283 5.939 A 40.856 40.856 0 0 1 152 10.401 A 31.958 31.958 0 0 1 160.228 16.806 A 38.232 38.232 0 0 1 166.4 25.901 Q 171.6 36.401 171.6 52.601 Q 171.6 67.401 167.3 82.301 Q 163 97.201 155.2 110.501 A 128.898 128.898 0 0 1 154.71 111.329 A 116.216 116.216 0 0 1 137.1 134.101 Q 126.8 144.401 114.9 150.301 Q 103 156.201 90.2 156.201 Q 88.2 156.201 86.3 156.001 A 70.06 70.06 0 0 1 86.255 155.996 Q 84.367 155.796 81.6 155.401 Q 84.8 141.001 89.6 123.401 Q 94.4 105.801 100.2 87.301 Q 106 68.801 112.3 51.401 Q 118.6 34.001 124.8 19.601 Q 122 17.601 119.2 17.601 A 7.621 7.621 0 0 0 115.822 18.391 A 9.932 9.932 0 0 0 113.6 19.901 A 22.91 22.91 0 0 0 112.328 21.117 A 25.692 25.692 0 0 0 109 25.401 A 59.739 59.739 0 0 0 107.922 27.193 A 51.06 51.06 0 0 0 105.6 31.701 A 172.74 172.74 0 0 0 104.988 33.072 Q 104.059 35.176 103.6 36.401 A 377.295 377.295 0 0 0 102.878 38.38 Q 101.591 41.935 99.6 47.601 A 572.372 572.372 0 0 0 98.857 49.73 Q 96.55 56.379 93.8 64.801 Q 90.6 74.601 87.1 85.901 Q 83.6 97.201 80.2 108.901 A 944.151 944.151 0 0 0 79.777 110.361 A 863.436 863.436 0 0 0 73.9 131.701 Q 71 142.801 69 152.401 A 23.121 23.121 0 0 0 71.52 155.387 A 16.972 16.972 0 0 0 78.6 159.701 A 38.106 38.106 0 0 0 79.479 159.956 Z" id="1"/>
    <path d="M 257.6 111.601 L 260 113.401 A 77.398 77.398 0 0 1 250.739 128.998 A 69.079 69.079 0 0 1 246.3 134.201 A 69.439 69.439 0 0 1 235.378 143.678 A 59.47 59.47 0 0 1 228.3 147.901 A 45.346 45.346 0 0 1 215.517 152.209 A 40.698 40.698 0 0 1 208.6 152.801 A 35.301 35.301 0 0 1 201.571 152.147 Q 194.494 150.707 190.3 146.101 A 23.248 23.248 0 0 1 184.245 131.262 A 30.26 30.26 0 0 1 184.2 129.601 A 40.736 40.736 0 0 1 185.624 119.16 A 55.507 55.507 0 0 1 188.7 110.601 A 78.707 78.707 0 0 1 200.641 91.87 A 87.43 87.43 0 0 1 200.7 91.801 A 72.079 72.079 0 0 1 211.721 81.261 A 63.367 63.367 0 0 1 217.2 77.501 A 40.59 40.59 0 0 1 225.037 73.741 A 30.23 30.23 0 0 1 235 72.001 Q 239.6 72.001 243.5 74.401 Q 247.4 76.801 247.4 84.201 A 25.062 25.062 0 0 1 243.245 97.976 A 30.358 30.358 0 0 1 242.9 98.501 Q 238.4 105.201 231.1 110.401 Q 223.8 115.601 215.1 118.901 Q 206.4 122.201 197.8 123.001 Q 197.4 125.001 197.2 126.801 Q 197 128.601 197 130.201 Q 197 133.201 197.7 136.201 Q 198.4 139.201 200.2 141.701 A 11.574 11.574 0 0 0 203.983 145.037 A 14.202 14.202 0 0 0 205.1 145.601 A 14.596 14.596 0 0 0 208.217 146.582 Q 209.703 146.883 211.42 146.968 A 28.035 28.035 0 0 0 212.8 147.001 A 31.807 31.807 0 0 0 225.588 144.245 A 40.121 40.121 0 0 0 229.8 142.101 Q 238.2 137.201 245.4 129.201 Q 252.6 121.201 257.6 111.601 Z M 198.8 119.201 A 68.048 68.048 0 0 0 203.699 117.34 Q 207.122 115.897 211 113.901 Q 217.8 110.401 224.1 105.601 A 51.776 51.776 0 0 0 231.345 98.956 A 44.211 44.211 0 0 0 234.5 95.001 A 22.958 22.958 0 0 0 237.607 88.956 A 19.487 19.487 0 0 0 238.6 82.801 Q 238.6 81.357 238.255 80.344 A 4.031 4.031 0 0 0 237.8 79.401 Q 237 78.201 234.4 78.201 A 14.387 14.387 0 0 0 229.609 79.069 Q 227.723 79.733 225.754 80.906 A 28.993 28.993 0 0 0 224.2 81.901 A 46.199 46.199 0 0 0 218.252 86.791 A 60.475 60.475 0 0 0 213.8 91.601 Q 208.8 97.601 204.8 104.801 A 69.226 69.226 0 0 0 200.245 114.701 A 60.086 60.086 0 0 0 198.8 119.201 Z" id="2"/>
    <path d="M 324.2 111.601 L 326.6 113.401 A 77.398 77.398 0 0 1 317.339 128.998 A 69.079 69.079 0 0 1 312.9 134.201 A 69.439 69.439 0 0 1 301.978 143.678 A 59.47 59.47 0 0 1 294.9 147.901 A 45.346 45.346 0 0 1 282.117 152.209 A 40.698 40.698 0 0 1 275.2 152.801 A 35.301 35.301 0 0 1 268.171 152.147 Q 261.094 150.707 256.9 146.101 A 23.248 23.248 0 0 1 250.845 131.262 A 30.26 30.26 0 0 1 250.8 129.601 A 40.736 40.736 0 0 1 252.224 119.16 A 55.507 55.507 0 0 1 255.3 110.601 A 78.707 78.707 0 0 1 267.241 91.87 A 87.43 87.43 0 0 1 267.3 91.801 A 72.079 72.079 0 0 1 278.321 81.261 A 63.367 63.367 0 0 1 283.8 77.501 A 40.59 40.59 0 0 1 291.637 73.741 A 30.23 30.23 0 0 1 301.6 72.001 Q 306.2 72.001 310.1 74.401 Q 314 76.801 314 84.201 A 25.062 25.062 0 0 1 309.845 97.976 A 30.358 30.358 0 0 1 309.5 98.501 Q 305 105.201 297.7 110.401 Q 290.4 115.601 281.7 118.901 Q 273 122.201 264.4 123.001 Q 264 125.001 263.8 126.801 Q 263.6 128.601 263.6 130.201 Q 263.6 133.201 264.3 136.201 Q 265 139.201 266.8 141.701 A 11.574 11.574 0 0 0 270.583 145.037 A 14.202 14.202 0 0 0 271.7 145.601 A 14.596 14.596 0 0 0 274.817 146.582 Q 276.303 146.883 278.02 146.968 A 28.035 28.035 0 0 0 279.4 147.001 A 31.807 31.807 0 0 0 292.188 144.245 A 40.121 40.121 0 0 0 296.4 142.101 Q 304.8 137.201 312 129.201 Q 319.2 121.201 324.2 111.601 Z M 265.4 119.201 A 68.048 68.048 0 0 0 270.299 117.34 Q 273.722 115.897 277.6 113.901 Q 284.4 110.401 290.7 105.601 A 51.776 51.776 0 0 0 297.945 98.956 A 44.211 44.211 0 0 0 301.1 95.001 A 22.958 22.958 0 0 0 304.207 88.956 A 19.487 19.487 0 0 0 305.2 82.801 Q 305.2 81.357 304.855 80.344 A 4.031 4.031 0 0 0 304.4 79.401 Q 303.6 78.201 301 78.201 A 14.387 14.387 0 0 0 296.209 79.069 Q 294.323 79.733 292.354 80.906 A 28.993 28.993 0 0 0 290.8 81.901 A 46.199 46.199 0 0 0 284.852 86.791 A 60.475 60.475 0 0 0 280.4 91.601 Q 275.4 97.601 271.4 104.801 A 69.226 69.226 0 0 0 266.845 114.701 A 60.086 60.086 0 0 0 265.4 119.201 Z" id="3"/>
    <path d="M 307.6 200.001 Q 306 200.001 304.5 198.301 A 13.78 13.78 0 0 1 302.772 195.876 A 12.06 12.06 0 0 1 302.2 194.701 A 42.99 42.99 0 0 1 301.928 194.041 Q 301.427 192.793 301.401 192.437 A 0.501 0.501 0 0 1 301.4 192.401 A 371.967 371.967 0 0 1 304.089 183.4 Q 305.419 179.154 306.726 175.399 A 224.468 224.468 0 0 1 306.9 174.901 Q 309.6 167.201 312.3 159.101 A 180.786 180.786 0 0 0 314.643 151.478 Q 315.764 147.544 316.867 143.111 A 319.412 319.412 0 0 0 317.6 140.101 A 311.26 311.26 0 0 0 319.578 131.181 Q 320.414 127.153 321.27 122.608 A 656.534 656.534 0 0 0 323 113.001 Q 325.792 96.849 328.584 72.942 A 1290.222 1290.222 0 0 0 328.6 72.801 A 10.281 10.281 0 0 1 328.744 71.868 Q 328.933 70.948 329.269 70.395 A 2.398 2.398 0 0 1 329.4 70.201 Q 329.991 69.413 332.331 69.401 A 14.16 14.16 0 0 1 332.4 69.401 A 14.634 14.634 0 0 1 335.088 69.63 Q 336.555 69.905 337.683 70.509 A 6.431 6.431 0 0 1 339.8 72.301 A 10.844 10.844 0 0 1 341.579 75.722 A 9.888 9.888 0 0 1 342 78.601 A 21.962 21.962 0 0 1 341.93 80.215 Q 341.709 83.145 340.8 88.601 Q 339.975 93.551 338.677 99.73 A 435.312 435.312 0 0 1 337.4 105.601 A 87.873 87.873 0 0 1 342.314 97.273 A 107.799 107.799 0 0 1 345.9 92.201 A 51.371 51.371 0 0 1 356.985 81.237 A 48.631 48.631 0 0 1 357.6 80.801 Q 364.2 76.201 372 76.201 A 20.043 20.043 0 0 1 379.741 77.655 A 18.727 18.727 0 0 1 386.5 82.501 Q 392.2 88.801 392.2 99.001 A 39.39 39.39 0 0 1 391.03 108.321 A 52.51 52.51 0 0 1 388.7 115.501 A 62.633 62.633 0 0 1 379.484 131.177 A 70.199 70.199 0 0 1 378.9 131.901 Q 372.6 139.601 364 144.401 A 38.183 38.183 0 0 1 345.648 149.196 A 44.705 44.705 0 0 1 345 149.201 A 36.869 36.869 0 0 1 341.697 149.062 Q 340.111 148.919 338.772 148.629 A 15.628 15.628 0 0 1 336.6 148.001 Q 333.952 147.008 333.495 146.015 A 0.983 0.983 0 0 1 333.4 145.601 A 0.701 0.701 0 0 1 333.793 144.966 Q 334.168 144.75 334.9 144.701 A 40.608 40.608 0 0 1 336.095 144.64 Q 336.82 144.613 337.638 144.605 A 74.272 74.272 0 0 1 338.4 144.601 A 32.032 32.032 0 0 0 353.7 140.701 Q 361 136.801 366.8 130.401 Q 372.6 124.001 375.9 116.201 Q 379.2 108.401 379.2 100.801 A 25.293 25.293 0 0 0 378.701 95.652 A 18.333 18.333 0 0 0 376.5 89.901 A 8.852 8.852 0 0 0 370.101 85.587 A 13.613 13.613 0 0 0 367.8 85.401 Q 362.6 85.401 357.5 88.701 A 44.252 44.252 0 0 0 350.771 94.089 A 52.897 52.897 0 0 0 347.9 97.101 Q 343.4 102.201 339.9 107.701 Q 337.049 112.18 335.326 115.93 A 43.019 43.019 0 0 0 334.6 117.601 A 1712.848 1712.848 0 0 1 329.2 139.482 A 1537.059 1537.059 0 0 1 327.4 146.501 Q 323.8 160.401 320.5 171.701 Q 317.2 183.001 314.5 190.201 A 82.099 82.099 0 0 1 313.362 193.083 Q 311.406 197.751 310 199.001 A 3.27 3.27 0 0 1 307.644 200.001 A 3.89 3.89 0 0 1 307.6 200.001 Z" id="4"/>
    <path d="M 489.6 111.601 L 491.6 113.601 A 74.574 74.574 0 0 1 484.691 127.222 A 65.095 65.095 0 0 1 480.8 132.601 Q 474.2 140.801 466.7 145.401 A 34.28 34.28 0 0 1 460.425 148.464 A 24.715 24.715 0 0 1 452 150.001 A 19.673 19.673 0 0 1 447.853 149.593 Q 445.297 149.041 443.401 147.744 A 10.5 10.5 0 0 1 441.1 145.601 A 16.323 16.323 0 0 1 438.395 140.776 A 14.493 14.493 0 0 1 437.6 136.001 A 17.205 17.205 0 0 1 437.647 134.768 Q 437.697 134.074 437.8 133.301 Q 438 131.801 438.2 130.201 A 184.631 184.631 0 0 1 438.066 130.382 Q 429.545 141.846 422.5 147.601 Q 415.4 153.401 408 153.401 Q 401.8 153.401 397.5 149.301 A 12.768 12.768 0 0 1 394.242 144.028 Q 393.2 140.935 393.2 136.801 Q 393.2 129.654 396.353 121.422 A 60.931 60.931 0 0 1 396.4 121.301 A 75.595 75.595 0 0 1 402.511 109.027 A 88.754 88.754 0 0 1 405.2 104.901 Q 410.8 96.801 417.9 90.101 A 67.099 67.099 0 0 1 428.041 82.165 A 58.376 58.376 0 0 1 432.9 79.401 A 38.152 38.152 0 0 1 441.266 76.28 A 31.465 31.465 0 0 1 448.6 75.401 Q 456.4 75.401 461.6 79.501 A 13.02 13.02 0 0 1 466.738 88.946 A 16.703 16.703 0 0 1 466.8 90.401 Q 466.8 93.169 465.973 94.956 A 5.3 5.3 0 0 1 464.1 97.201 Q 461.4 99.001 457 99.001 A 36.649 36.649 0 0 0 457.418 97.106 A 46.133 46.133 0 0 0 457.7 95.501 Q 458 93.601 458 92.001 A 16.096 16.096 0 0 0 457.533 88.037 A 12.63 12.63 0 0 0 455.8 84.101 A 6.918 6.918 0 0 0 452.059 81.346 Q 450.836 80.946 449.328 80.839 A 16.06 16.06 0 0 0 448.2 80.801 Q 442.748 80.801 437.106 84.498 A 30.854 30.854 0 0 0 436.8 84.701 A 47.381 47.381 0 0 0 430.489 89.827 A 63.281 63.281 0 0 0 425.6 95.101 Q 420.2 101.601 416 109.201 A 90.633 90.633 0 0 0 411.169 119.323 A 77.001 77.001 0 0 0 409.4 124.201 A 56.549 56.549 0 0 0 407.846 129.949 Q 407.238 132.83 407.067 135.419 A 30.071 30.071 0 0 0 407 137.401 A 16.68 16.68 0 0 0 407.206 140.15 Q 408.055 145.201 412.4 145.201 A 11.643 11.643 0 0 0 416.424 144.436 Q 418.074 143.829 419.814 142.743 A 27.886 27.886 0 0 0 422.4 140.901 A 67.179 67.179 0 0 0 427.528 136.342 Q 430.081 133.843 432.697 130.834 A 113.837 113.837 0 0 0 433.5 129.901 Q 439.2 123.201 444.4 116.001 Q 449.6 108.801 453.6 102.801 A 19.476 19.476 0 0 1 453.857 102.424 Q 454.434 101.601 454.6 101.601 A 13.984 13.984 0 0 1 455.418 101.765 Q 456.394 101.988 457.7 102.401 A 12.932 12.932 0 0 1 459.667 103.196 A 10.373 10.373 0 0 1 461 104.001 Q 462.4 105.001 462.4 106.601 Q 462.4 108.112 461.132 110.538 A 24.736 24.736 0 0 1 460.6 111.501 A 291.803 291.803 0 0 0 458.825 114.605 Q 457.769 116.476 456.6 118.601 Q 454.4 122.601 452.6 126.701 A 23.398 23.398 0 0 0 451.37 130.193 Q 450.836 132.24 450.802 134.147 A 14.507 14.507 0 0 0 450.8 134.401 A 11.718 11.718 0 0 0 451.856 139.21 A 14.318 14.318 0 0 0 452.4 140.301 A 5.444 5.444 0 0 0 454.339 142.383 Q 455.687 143.201 457.6 143.201 Q 463 143.201 471.8 135.301 Q 480.6 127.401 489.6 111.601 Z" id="5"/>
    <path d="M 578.6 111.401 L 580.6 113.401 Q 577.8 123.201 572 131.901 A 66.151 66.151 0 0 1 565.267 140.46 A 52.603 52.603 0 0 1 559.1 146.101 Q 552.984 150.839 546.942 151.495 A 17.964 17.964 0 0 1 545 151.601 Q 539.4 151.601 535.4 147.801 Q 531.4 144.001 529.1 138.201 Q 526.8 132.401 525.7 126.301 Q 524.6 120.201 524.6 115.601 A 12.665 12.665 0 0 0 525.996 115.514 Q 527.516 115.344 529.642 114.84 A 59.276 59.276 0 0 0 531 114.501 A 38.113 38.113 0 0 0 536.328 112.657 A 46.788 46.788 0 0 0 539.6 111.101 Q 544 108.801 547.1 105.101 Q 550.2 101.401 550.2 96.401 A 9.433 9.433 0 0 0 549.751 93.422 A 7.638 7.638 0 0 0 547.2 89.801 Q 544.2 87.401 540.2 87.401 A 17.673 17.673 0 0 0 530.48 90.35 A 22.926 22.926 0 0 0 528.6 91.701 A 39.577 39.577 0 0 0 522.427 97.907 A 51.097 51.097 0 0 0 518.9 102.901 Q 514.6 109.801 511.2 117.601 A 214.293 214.293 0 0 0 507.428 126.81 A 173.646 173.646 0 0 0 505.4 132.401 Q 503 139.401 501.4 144.001 A 13.714 13.714 0 0 1 500.576 145.981 Q 499.53 147.997 498 148.901 A 9.201 9.201 0 0 1 494.88 150.074 A 8.63 8.63 0 0 1 493.4 150.201 Q 490.071 150.201 488.564 147.517 A 6.631 6.631 0 0 1 488.5 147.401 A 13.599 13.599 0 0 1 487.417 144.664 Q 486.869 142.72 486.7 140.301 A 126.383 126.383 0 0 1 486.405 132.546 A 139.349 139.349 0 0 1 486.4 131.401 Q 486.4 122.566 488.854 111.421 A 146.205 146.205 0 0 1 489.8 107.401 A 223.22 223.22 0 0 1 494.948 89.971 A 266.354 266.354 0 0 1 498.9 79.101 Q 504.6 64.401 511.4 50.601 Q 518.2 36.801 525 25.601 Q 531.8 14.401 537.6 7.801 A 44.516 44.516 0 0 1 540.032 5.229 Q 544.187 1.201 547 1.201 A 3.907 3.907 0 0 1 549.836 2.437 Q 550.412 3.012 550.911 3.854 A 11.324 11.324 0 0 1 551.5 5.001 A 18.42 18.42 0 0 1 552.762 9.129 Q 553.2 11.459 553.2 14.201 A 36.894 36.894 0 0 1 552.584 20.713 Q 552.026 23.818 550.964 27.209 A 67.665 67.665 0 0 1 550.2 29.501 A 78.321 78.321 0 0 1 545.04 40.968 A 94.888 94.888 0 0 1 541.7 46.601 Q 536.2 55.201 528.7 62.801 Q 521.2 70.401 512.4 75.801 A 200.34 200.34 0 0 0 505.021 97.163 A 169.785 169.785 0 0 0 502.5 107.301 Q 500.181 118.051 499.492 126.383 A 80.492 80.492 0 0 0 499.2 133.001 Q 502.4 125.001 506.9 115.401 Q 511.4 105.801 517.2 97.001 Q 523 88.201 529.8 82.601 A 27.06 27.06 0 0 1 535.397 78.988 A 19.892 19.892 0 0 1 544 77.001 A 17.142 17.142 0 0 1 556.437 82.04 A 20.53 20.53 0 0 1 556.6 82.201 A 17.136 17.136 0 0 1 561.799 94.57 A 20.915 20.915 0 0 1 561.8 94.801 A 20.695 20.695 0 0 1 561.122 100.211 A 16.442 16.442 0 0 1 558.5 105.701 Q 555.2 110.201 550.5 112.901 A 42.844 42.844 0 0 1 544.184 115.897 A 36.718 36.718 0 0 1 541.1 116.901 A 48.837 48.837 0 0 1 538.329 117.587 Q 535.462 118.201 533.4 118.201 Q 533.564 119.517 534.27 122.591 A 178.098 178.098 0 0 0 534.6 124.001 A 54.274 54.274 0 0 0 536.189 129.372 A 67.235 67.235 0 0 0 537.5 132.801 A 32.474 32.474 0 0 0 539.922 137.565 A 26.335 26.335 0 0 0 542.2 140.701 A 9.919 9.919 0 0 0 544.673 142.838 A 8.292 8.292 0 0 0 549 144.001 A 15.6 15.6 0 0 0 557.028 141.728 A 21.529 21.529 0 0 0 560 139.601 A 43.222 43.222 0 0 0 564.92 134.658 Q 567.152 132.045 569.283 128.844 A 73.914 73.914 0 0 0 569.9 127.901 A 106.378 106.378 0 0 0 575.435 118.166 A 132.257 132.257 0 0 0 578.6 111.401 Z M 515.8 67.801 Q 525 60.401 531.9 51.001 A 111.969 111.969 0 0 0 537.941 41.917 A 82.116 82.116 0 0 0 542.6 32.901 Q 545.732 25.73 546.283 21.073 A 15.987 15.987 0 0 0 546.4 19.201 A 15.808 15.808 0 0 0 546.394 18.738 Q 546.375 18.101 546.3 17.801 Q 546.211 17.443 545.882 17.405 A 0.712 0.712 0 0 0 545.8 17.401 A 2.161 2.161 0 0 0 544.724 17.773 Q 542.741 18.972 539.156 24.037 A 86.089 86.089 0 0 0 538.9 24.401 A 124.434 124.434 0 0 0 535.378 29.745 Q 533.623 32.55 531.729 35.839 A 288.182 288.182 0 0 0 527.8 42.901 A 305.832 305.832 0 0 0 519.464 59.612 A 361.156 361.156 0 0 0 515.8 67.801 Z" id="6"/>
    <path d="M 630 146.701 A 4927.319 4927.319 0 0 0 629.323 148.193 Q 624.523 158.781 623.4 161.401 A 7.871 7.871 0 0 0 624.947 161.246 Q 628.248 160.586 631.623 157.115 A 31.856 31.856 0 0 0 634.4 153.801 A 57.077 57.077 0 0 0 636.335 150.991 Q 639.574 145.993 643.328 138.33 A 257.061 257.061 0 0 0 647.3 129.801 A 851.884 851.884 0 0 0 648.879 126.231 Q 655.739 110.627 665.4 87.101 A 2923.725 2923.725 0 0 1 672.658 69.599 Q 676.541 60.316 680.931 49.968 A 5865.093 5865.093 0 0 1 692.2 23.601 A 53.94 53.94 0 0 1 692.254 24.175 Q 692.414 25.967 692.5 28.201 A 91.659 91.659 0 0 1 692.51 28.463 Q 692.576 30.333 692.594 32.888 A 279.678 279.678 0 0 1 692.6 34.801 A 305.168 305.168 0 0 1 692.551 40.104 Q 692.502 42.906 692.405 46.012 A 582.78 582.78 0 0 1 692.1 53.901 A 4285.148 4285.148 0 0 1 691.844 59.507 A 4822.653 4822.653 0 0 1 691 77.001 A 4419.983 4419.983 0 0 0 690.925 78.498 A 4044.046 4044.046 0 0 0 689.9 100.301 A 618.267 618.267 0 0 0 689.636 107.061 Q 689.529 110.289 689.47 113.215 A 330.007 330.007 0 0 0 689.4 119.801 A 148.23 148.23 0 0 0 689.416 121.995 Q 689.513 128.552 690.204 133.293 A 40.261 40.261 0 0 0 691.1 137.801 Q 692.8 144.201 698.2 144.201 A 8.046 8.046 0 0 0 698.633 144.19 Q 699.058 144.167 699.336 144.095 A 1.34 1.34 0 0 0 699.6 144.001 A 3.145 3.145 0 0 1 699.722 143.944 Q 700.161 143.747 701.2 143.401 A 172.623 172.623 0 0 1 701.444 142.654 Q 703.819 135.443 708 124.801 Q 712.4 113.601 718.1 100.501 Q 723.8 87.401 730.1 74.301 Q 736.4 61.201 742.7 49.901 A 208.02 208.02 0 0 1 745.481 45.062 Q 750.291 36.953 754.8 31.201 A 1624.713 1624.713 0 0 0 751.006 45.77 A 1434.139 1434.139 0 0 0 740.9 87.901 A 269.956 269.956 0 0 0 736.73 111.119 A 211.365 211.365 0 0 0 734.8 139.001 Q 734.8 144.638 735.367 148.716 A 33.95 33.95 0 0 0 736 152.101 Q 737.2 157.001 740.8 159.201 A 9.851 9.851 0 0 0 740.81 159.207 Q 744.41 161.401 751.2 161.401 Q 750.4 158.001 749.7 156.101 Q 749 154.201 748.6 151.801 Q 748.2 149.401 748.2 145.001 A 139.093 139.093 0 0 1 748.323 139.34 Q 748.643 131.497 749.8 121.301 A 495.862 495.862 0 0 1 751.155 110.459 A 606.963 606.963 0 0 1 754.1 91.201 Q 756.8 75.201 760 59.701 A 743.463 743.463 0 0 1 760.206 58.705 Q 763.303 43.808 766.4 32.001 A 298.878 298.878 0 0 1 767.613 27.39 Q 768.62 23.689 769.611 20.462 A 149.903 149.903 0 0 1 771.5 14.701 A 760.048 760.048 0 0 1 772.611 11.565 Q 773.768 8.327 774.631 6.02 A 171.101 171.101 0 0 1 775.4 4.001 A 26.948 26.948 0 0 0 774.142 3.546 Q 772.787 3.095 771.554 2.859 A 13.613 13.613 0 0 0 769 2.601 A 9.11 9.11 0 0 0 768.219 2.634 A 6.677 6.677 0 0 0 763.8 4.701 Q 762.425 6.145 760.672 8.487 A 89.837 89.837 0 0 0 759 10.801 A 483.855 483.855 0 0 0 758.802 11.106 Q 756.191 15.13 750.8 23.601 A 471.24 471.24 0 0 0 747.163 29.413 Q 743.012 36.151 738.2 44.401 A 527.32 527.32 0 0 0 733.815 52.067 A 617.873 617.873 0 0 0 724.1 70.101 Q 717 83.801 711.1 97.601 A 217.22 217.22 0 0 0 706.436 109.421 A 167.322 167.322 0 0 0 702 123.601 Q 702.4 112.401 703.4 98.801 Q 704.4 85.201 705.3 71.201 A 462.743 462.743 0 0 0 705.848 60.926 A 384.88 384.88 0 0 0 706.2 44.801 A 255.632 255.632 0 0 0 706.138 39.036 Q 705.933 30.001 705.063 23.459 A 64.344 64.344 0 0 0 703.9 17.001 A 52.708 52.708 0 0 0 703.598 15.8 Q 701.313 7.165 697.1 3.701 A 15.675 15.675 0 0 0 691.462 0.735 A 19.483 19.483 0 0 0 686 0.001 A 33.559 33.559 0 0 0 680.588 0.447 A 39.765 39.765 0 0 0 672.5 2.701 Q 665.6 5.401 659.9 10.201 A 48.394 48.394 0 0 0 659.174 10.825 A 42.768 42.768 0 0 0 650.6 21.001 A 28.55 28.55 0 0 0 650.351 21.424 A 24.02 24.02 0 0 0 647 33.601 A 19.111 19.111 0 0 0 647.007 34.112 Q 647.049 35.685 647.348 37.422 A 32.276 32.276 0 0 0 648.1 40.701 A 20.238 20.238 0 0 0 648.905 43.021 A 16.169 16.169 0 0 0 651.5 47.301 A 7.389 7.389 0 0 0 654.685 49.529 A 8.644 8.644 0 0 0 657.6 50.001 Q 657.4 48.601 657.3 47.201 A 33.459 33.459 0 0 1 657.247 46.267 Q 657.226 45.771 657.214 45.217 A 67.198 67.198 0 0 1 657.2 43.801 A 50.32 50.32 0 0 1 657.329 40.204 A 55.328 55.328 0 0 1 659.9 27.201 A 41.86 41.86 0 0 1 661.267 23.533 A 34.29 34.29 0 0 1 668.1 13.101 A 18.117 18.117 0 0 1 674.79 8.643 A 20.256 20.256 0 0 1 682 7.401 A 19.298 19.298 0 0 1 683.461 7.453 Q 686.442 7.68 687.5 8.901 A 5.139 5.139 0 0 1 688.533 10.751 A 6.167 6.167 0 0 1 688.8 12.601 A 14.144 14.144 0 0 1 688.745 13.846 A 16.006 16.006 0 0 1 688.1 17.101 Q 687.641 18.61 687.224 19.732 A 23.357 23.357 0 0 1 686.8 20.801 Q 674.6 48.001 663.7 72.301 A 11485.782 11485.782 0 0 1 662.262 75.505 Q 657.263 86.641 652.74 96.652 A 6892.045 6892.045 0 0 1 644.1 115.701 Q 635.4 134.801 630 146.701 Z" id="8"/>
    <path d="M 850.4 112.201 L 852.8 114.201 A 32.883 32.883 0 0 1 849.254 120.592 A 22.756 22.756 0 0 1 841.5 127.501 Q 834.596 131.19 828.317 131.39 A 22.542 22.542 0 0 1 827.6 131.401 A 24.589 24.589 0 0 1 822.901 130.962 A 22.75 22.75 0 0 1 822.6 130.901 Q 820.2 130.401 818 129.401 A 78.671 78.671 0 0 1 808.754 139.701 A 66.738 66.738 0 0 1 803.1 144.401 Q 795 150.401 787.4 150.401 A 21.92 21.92 0 0 1 782.958 149.982 Q 780.302 149.431 778.328 148.159 A 10.858 10.858 0 0 1 775.2 145.101 A 20.512 20.512 0 0 1 772.006 137.048 A 27.768 27.768 0 0 1 771.6 132.201 A 42.185 42.185 0 0 1 772.679 122.879 A 50.119 50.119 0 0 1 773.6 119.401 Q 775.6 112.801 778.9 107.001 A 42.68 42.68 0 0 1 782.17 102.047 A 31.369 31.369 0 0 1 786.3 97.601 A 17.397 17.397 0 0 1 789.131 95.551 Q 791.038 94.461 792.967 94.138 A 9.851 9.851 0 0 1 794.6 94.001 A 7.458 7.458 0 0 1 795.956 94.13 A 9.143 9.143 0 0 1 796.7 94.301 A 19.484 19.484 0 0 1 798.675 94.951 A 17.927 17.927 0 0 1 798.8 95.001 A 11.005 11.005 0 0 0 797.732 96.115 Q 796.661 97.38 795.389 99.421 A 56.532 56.532 0 0 0 794.5 100.901 A 66.574 66.574 0 0 0 791.801 106.079 A 86.534 86.534 0 0 0 789.8 110.701 A 105.37 105.37 0 0 0 786.194 121.263 A 97.217 97.217 0 0 0 786.1 121.601 A 50.983 50.983 0 0 0 785.216 125.276 Q 784.6 128.367 784.6 130.801 A 28.554 28.554 0 0 0 784.75 133.835 Q 785.079 136.904 786.133 138.777 A 6.898 6.898 0 0 0 786.6 139.501 A 7.028 7.028 0 0 0 788.384 141.224 A 6.09 6.09 0 0 0 791.8 142.201 A 10.015 10.015 0 0 0 794.951 141.645 Q 797.623 140.757 800.799 138.453 A 38.938 38.938 0 0 0 801.8 137.701 A 59.927 59.927 0 0 0 807.906 132.214 A 81.05 81.05 0 0 0 813.2 126.201 A 29.007 29.007 0 0 1 806.09 117.457 A 35.883 35.883 0 0 1 804.5 114.101 Q 801.4 106.601 801.4 98.801 A 33.561 33.561 0 0 1 803.289 87.496 A 31.946 31.946 0 0 1 803.7 86.401 A 23.721 23.721 0 0 1 806.949 80.608 A 20.366 20.366 0 0 1 810.4 77.101 A 16.062 16.062 0 0 1 819.245 73.674 A 20.673 20.673 0 0 1 821 73.601 Q 829.2 73.601 832 78.001 Q 834.683 82.217 834.795 88.454 A 30.474 30.474 0 0 1 834.8 89.001 A 37.908 37.908 0 0 1 833.965 96.687 Q 833.226 100.255 831.832 104.116 A 68.688 68.688 0 0 1 831 106.301 Q 827.2 115.801 821.4 124.601 Q 825 126.601 829 126.601 Q 831.769 126.601 835.136 125.628 A 33.821 33.821 0 0 0 836.2 125.301 A 21.811 21.811 0 0 0 840.792 123.163 A 28.953 28.953 0 0 0 844.1 120.801 A 21.059 21.059 0 0 0 848.527 115.726 A 27.374 27.374 0 0 0 850.4 112.201 Z M 816.8 121.001 Q 821.8 113.601 825.1 105.501 A 47.894 47.894 0 0 0 827.469 98.105 A 35.471 35.471 0 0 0 828.4 90.201 A 31.473 31.473 0 0 0 828.269 87.222 Q 827.929 83.652 826.7 81.701 A 7.261 7.261 0 0 0 825.611 80.336 A 4.484 4.484 0 0 0 822.4 79.001 A 6.459 6.459 0 0 0 819.244 79.886 Q 817.099 81.078 814.898 83.875 A 29.084 29.084 0 0 0 814.2 84.801 A 21.463 21.463 0 0 0 810.641 92.984 A 30.497 30.497 0 0 0 810 99.401 A 41.977 41.977 0 0 0 811.595 110.732 A 46.744 46.744 0 0 0 811.7 111.101 Q 813.4 117.001 816.8 121.001 Z" id="9"/>
    <path d="M 945 111.601 L 947.4 113.401 Q 943.6 123.601 937 131.701 A 66.039 66.039 0 0 1 929.844 139.249 A 51.352 51.352 0 0 1 922.9 144.501 Q 916.581 148.461 910.759 149.084 A 20.261 20.261 0 0 1 908.6 149.201 A 17.383 17.383 0 0 1 904.793 148.813 Q 902.451 148.287 900.765 147.047 A 9.149 9.149 0 0 1 898.3 144.301 A 20.911 20.911 0 0 1 895.897 138.456 A 18.42 18.42 0 0 1 895.4 134.201 A 30.89 30.89 0 0 1 895.498 131.861 Q 895.698 129.238 896.311 125.708 A 105.248 105.248 0 0 1 896.4 125.201 A 132.996 132.996 0 0 1 897.6 119.301 A 182.798 182.798 0 0 1 899.2 112.801 A 154.663 154.663 0 0 1 890.022 126.383 A 132.133 132.133 0 0 1 885.6 131.901 Q 878.4 140.401 871.5 145.201 A 32.642 32.642 0 0 1 866.839 147.934 Q 862.469 150.001 858.4 150.001 A 14.723 14.723 0 0 1 853.678 149.197 A 18.527 18.527 0 0 1 851.5 148.301 A 13.13 13.13 0 0 1 846.966 144.621 A 16.937 16.937 0 0 1 845.7 142.801 Q 843.4 139.001 843.4 133.201 Q 843.4 126.601 846.6 118.401 A 82.181 82.181 0 0 1 852.6 106.221 A 96.195 96.195 0 0 1 855.2 102.101 Q 860.6 94.001 867.6 87.101 Q 874.6 80.201 882.2 76.101 A 35.978 35.978 0 0 1 889.516 73.091 A 28.231 28.231 0 0 1 897.2 72.001 A 18.974 18.974 0 0 1 899.639 72.147 Q 902.119 72.47 903.7 73.501 A 4.904 4.904 0 0 1 905.916 77.038 A 7.681 7.681 0 0 1 906 78.201 A 10.828 10.828 0 0 1 905.981 78.86 Q 905.963 79.162 905.926 79.428 A 5.989 5.989 0 0 1 905.9 79.601 A 13.622 13.622 0 0 1 905.811 80.079 Q 905.757 80.343 905.688 80.637 A 25.504 25.504 0 0 1 905.6 81.001 A 5.513 5.513 0 0 0 902.963 78.804 A 6.905 6.905 0 0 0 902.7 78.701 Q 901.152 78.131 899.006 78.025 A 20.475 20.475 0 0 0 898 78.001 A 21.821 21.821 0 0 0 888.569 80.195 A 27.771 27.771 0 0 0 885.5 81.901 Q 879.4 85.801 874.3 92.101 Q 869.2 98.401 865.4 105.601 A 91.868 91.868 0 0 0 861.663 113.543 A 73.547 73.547 0 0 0 859.5 119.501 A 58.758 58.758 0 0 0 858.304 123.859 Q 857.824 125.943 857.599 127.772 A 24.855 24.855 0 0 0 857.4 130.801 A 15.735 15.735 0 0 0 857.636 133.613 Q 858.087 136.095 859.4 137.801 Q 861.4 140.401 864.6 140.401 A 11.153 11.153 0 0 0 868.391 139.669 Q 872.527 138.17 877.7 133.601 Q 883.631 128.363 889.741 119.802 A 139.401 139.401 0 0 0 893.4 114.401 A 139.842 139.842 0 0 0 901.671 99.582 A 185.399 185.399 0 0 0 907.8 85.401 Q 912.2 73.801 916.9 61.801 A 725.913 725.913 0 0 1 925.202 41.49 A 659.43 659.43 0 0 1 926.4 38.701 Q 931.2 27.601 935.7 18.901 A 121.939 121.939 0 0 1 938.883 13.113 Q 940.452 10.444 941.97 8.243 A 53.374 53.374 0 0 1 944.3 5.101 A 26.691 26.691 0 0 1 946.172 2.99 Q 948.186 0.969 949.957 0.315 A 4.728 4.728 0 0 1 951.6 0.001 A 3.602 3.602 0 0 1 954.094 0.996 A 4.963 4.963 0 0 1 954.4 1.301 A 4.48 4.48 0 0 1 955.557 3.868 A 6.061 6.061 0 0 1 955.6 4.601 A 10.227 10.227 0 0 1 955.394 6.482 Q 954.775 9.726 952.3 15.501 A 268.547 268.547 0 0 1 949.544 21.698 Q 947.012 27.213 943.7 33.901 Q 938.4 44.601 932.6 57.201 Q 926.8 69.801 921.5 82.801 A 234.409 234.409 0 0 0 915.656 98.699 A 197.912 197.912 0 0 0 912.9 107.901 Q 909.832 119.15 909.616 128.584 A 61.971 61.971 0 0 0 909.6 130.001 A 83.917 83.917 0 0 0 909.647 132.929 Q 909.769 136.388 910.2 138.401 A 3.637 3.637 0 0 0 910.86 139.893 Q 911.838 141.153 914.03 141.199 A 8.003 8.003 0 0 0 914.2 141.201 A 12.2 12.2 0 0 0 917.547 140.695 Q 919.093 140.253 920.788 139.426 A 31.53 31.53 0 0 0 924 137.601 A 41.961 41.961 0 0 0 929.25 133.567 Q 932.225 130.907 935.2 127.401 A 61.817 61.817 0 0 0 941.505 118.392 A 78.531 78.531 0 0 0 945 111.601 Z" id="10"/>
    <path d="M 993.2 111.601 L 995 113.601 A 73.734 73.734 0 0 1 989.568 126.037 Q 984.857 134.467 978.3 140.001 Q 967.4 149.201 955.6 149.201 A 19.697 19.697 0 0 1 951.116 148.722 Q 946.612 147.67 944 144.301 A 18.031 18.031 0 0 1 940.363 135.209 A 23.595 23.595 0 0 1 940.2 132.401 A 32.338 32.338 0 0 1 940.401 128.955 Q 940.784 125.395 941.9 120.801 A 129.726 129.726 0 0 1 944.455 111.778 A 157.338 157.338 0 0 1 946.4 106.101 A 106.828 106.828 0 0 1 952.441 92.454 A 98.623 98.623 0 0 1 952.9 91.601 A 62.057 62.057 0 0 1 956.233 86.129 Q 958.024 83.522 959.92 81.436 A 35.672 35.672 0 0 1 960.8 80.501 A 25.079 25.079 0 0 1 960.866 80.434 Q 963.467 77.791 965.991 76.798 A 8.177 8.177 0 0 1 969 76.201 A 4.919 4.919 0 0 1 970.819 76.53 A 4.565 4.565 0 0 1 972.1 77.301 A 3.504 3.504 0 0 1 973.217 79.104 Q 973.377 79.69 973.397 80.394 A 7.186 7.186 0 0 1 973.4 80.601 A 5.9 5.9 0 0 1 973.206 81.988 Q 972.625 84.351 970.3 88.401 A 599.552 599.552 0 0 1 967.377 93.432 Q 965.866 96.006 964.159 98.864 A 1055.466 1055.466 0 0 1 963 100.801 Q 958.8 107.801 955.7 115.501 Q 952.6 123.201 952.6 130.201 A 33.896 33.896 0 0 0 952.732 133.312 Q 953.162 137.963 955 139.801 Q 956.902 141.703 960.437 142.098 A 17.714 17.714 0 0 0 962.4 142.201 A 15.951 15.951 0 0 0 968.494 140.911 Q 972.554 139.239 976.9 135.401 Q 984.6 128.601 993.2 111.601 Z M 975.982 57.014 A 10.908 10.908 0 0 0 979.6 57.601 A 12.55 12.55 0 0 0 984.675 56.539 A 15.391 15.391 0 0 0 988.5 54.101 A 17.566 17.566 0 0 0 989.752 52.927 Q 990.838 51.799 991.51 50.64 A 7.568 7.568 0 0 0 992.6 46.801 Q 992.6 45.074 992.136 43.864 A 4.202 4.202 0 0 0 990.8 42.001 A 5.778 5.778 0 0 0 990.026 41.494 Q 989.122 40.998 987.981 40.778 A 10.44 10.44 0 0 0 986 40.601 A 16.016 16.016 0 0 0 980.492 41.609 A 21.826 21.826 0 0 0 976.3 43.701 Q 974.309 44.96 973.127 46.401 A 7.099 7.099 0 0 0 971.4 51.001 Q 971.4 54.401 973.9 56.001 A 9.901 9.901 0 0 0 975.982 57.014 Z" id="11"/>
    <path d="M 1027.8 176.401 A 33.476 33.476 0 0 0 1030.29 173.576 Q 1033.373 169.699 1037.1 163.301 Q 1042.4 154.201 1048.5 141.601 A 693.512 693.512 0 0 0 1056.242 125.031 A 848.786 848.786 0 0 0 1061 114.301 Q 1067.4 99.601 1073.7 84.401 A 2369.517 2369.517 0 0 0 1084.266 58.49 A 2142.304 2142.304 0 0 0 1085.7 54.901 Q 1091.4 40.601 1096.1 28.701 A 3818.056 3818.056 0 0 0 1098.344 23.007 Q 1101.55 14.851 1103.8 9.001 A 6.26 6.26 0 0 1 1104.681 7.501 Q 1105.181 6.856 1105.888 6.212 A 16.367 16.367 0 0 1 1107.4 5.001 Q 1110.2 3.001 1113.8 1.501 Q 1117.4 0.001 1120.6 0.001 A 321.531 321.531 0 0 0 1120.067 1.29 Q 1119.207 3.38 1117.632 7.259 A 4200.666 4200.666 0 0 0 1116.6 9.801 Q 1114.537 14.888 1111.813 21.488 A 3435.234 3435.234 0 0 1 1109.2 27.801 Q 1104.8 38.401 1099.6 51.001 Q 1094.4 63.601 1089 76.701 A 3559.248 3559.248 0 0 1 1081.069 95.788 A 3172.541 3172.541 0 0 1 1078.5 101.901 Q 1073.4 114.001 1069.3 123.801 A 1908.389 1908.389 0 0 0 1067.356 128.463 Q 1064.988 134.168 1063.325 138.293 A 552.306 552.306 0 0 0 1062.8 139.601 Q 1055.4 157.401 1045.9 166.901 Q 1040.241 172.56 1034.901 174.848 A 17.95 17.95 0 0 1 1027.8 176.401 Z" id="13"/>
    <path d="M 1125.06 134.96 A 6.043 6.043 0 0 0 1126.8 135.201 A 13.581 13.581 0 0 0 1129.497 134.908 Q 1132.181 134.363 1135.5 132.801 A 57.963 57.963 0 0 0 1138.044 131.526 A 66.005 66.005 0 0 0 1145.6 126.801 A 65.308 65.308 0 0 0 1149.293 123.943 A 52.095 52.095 0 0 0 1154.2 119.301 A 37.416 37.416 0 0 0 1154.586 118.876 Q 1157.844 115.237 1158.6 112.401 Q 1152 109.401 1144.8 104.201 Q 1137.6 99.001 1131.2 92.801 Q 1124.8 86.601 1120.6 80.801 A 2.425 2.425 0 0 0 1120.512 81.005 Q 1120.365 81.385 1120.143 82.177 A 43.312 43.312 0 0 0 1120 82.701 Q 1119.6 84.201 1119.6 85.201 Q 1119.6 87.795 1120.988 90.431 A 17.907 17.907 0 0 0 1122.9 93.301 A 34.651 34.651 0 0 0 1123.01 93.437 Q 1124.725 95.545 1126.942 97.601 A 55.85 55.85 0 0 0 1131.4 101.301 Q 1136.6 105.201 1142.5 108.601 Q 1148.4 112.001 1153.4 114.601 Q 1149 117.801 1145 120.501 Q 1142.937 121.893 1140.503 123.259 A 88.613 88.613 0 0 1 1135.6 125.801 A 106.209 106.209 0 0 1 1134.419 126.361 Q 1129.23 128.781 1121 132.001 A 19.332 19.332 0 0 0 1121.135 132.134 Q 1122.093 133.074 1123.4 134.101 A 4.969 4.969 0 0 0 1125.06 134.96 Z" id="14"/>
  </g>
</svg>
